<svg width="100px" height="100px" viewBox="0 0 24 24" fill="none" xmlns="http://www.w3.org/2000/svg">
    <g id="SVGRepo_bgCarrier" stroke-width="0"/>
    <g id="SVGRepo_tracerCarrier" stroke-linecap="round" stroke-linejoin="round"/>
    <g id="SVGRepo_iconCarrier">
        <path d="M3.23 7.913 7.91 3.23c.15-.15.35-.23.57-.23h7.05c.21 0 .42.08.57.23l4.67 4.673c.15.15.23.35.23.57v7.054c0 .21-.08.42-.23.57L16.1 20.77c-.15.15-.35.23-.57.23H8.47a.81.81 0 0 1-.57-.23l-4.67-4.673a.793.793 0 0 1-.23-.57V8.473c0-.21.08-.42.23-.57v.01Z" fill="none" stroke="#e44bf6" stroke-width="1.5" stroke-miterlimit="10" stroke-linejoin="round"/>
        <path d="M12 16h.008M12 8v5" stroke="#e44bf6" stroke-width="1.5" stroke-miterlimit="10" stroke-linecap="round"/>
    </g>
</svg>